<?xml version="1.0" encoding="UTF-8"?>
<svg version="1.1" xmlns="http://www.w3.org/2000/svg" width="166" height="177">
<path d="M0 0 C54.78 0 109.56 0 166 0 C166 58.41 166 116.82 166 177 C111.22 177 56.44 177 0 177 C0 118.59 0 60.18 0 0 Z " fill="#FDFDFC" transform="translate(0,0)"/>
<path d="M0 0 C-0.42401972 3.39215778 -1.08007185 6.19653999 -2.375 9.375 C-6.72998006 20.63421675 -7.42707275 33.23311045 -8.5390625 45.1484375 C-10.47105482 65.81341868 -10.47105482 65.81341868 -14 74 C-14.41121094 74.95519531 -14.82242188 75.91039063 -15.24609375 76.89453125 C-20.7439283 88.73945935 -27.92937338 96.66579494 -40 102 C-49.44253589 105.08888543 -62.31135043 107.22954986 -72 104 C-72.18175781 104.7734375 -72.36351563 105.546875 -72.55078125 106.34375 C-76.43393148 122.43393148 -76.43393148 122.43393148 -79 125 C-80.66617115 125.04063832 -82.33388095 125.042721 -84 125 C-83.50365703 117.44455707 -81.55610799 111.01894331 -78.9375 103.9375 C-78.534104 102.83422363 -78.13070801 101.73094727 -77.71508789 100.59423828 C-74.64320324 92.36122637 -71.15706043 84.52061812 -66.96630859 76.80322266 C-65.99055946 74.98238306 -65.06349724 73.14303709 -64.14453125 71.29296875 C-56.95390049 57.00149659 -47.51090862 44.34341298 -36.984375 32.34375 C-34.89230495 30.38463085 -34.89230495 30.38463085 -35 29 C-38.50159372 32.16980142 -41.98480752 35.35791353 -45.44873047 38.56884766 C-46.74919809 39.76861807 -48.06256337 40.95438779 -49.37890625 42.13671875 C-56.82676643 49.11823041 -62.36909117 57.54567225 -68 66 C-68.59458008 66.89090332 -68.59458008 66.89090332 -69.20117188 67.79980469 C-74.70397167 76.14228459 -78.96681987 84.88753365 -83 94 C-83.66 94 -84.32 94 -85 94 C-92.64929721 85.11694518 -92.92091505 72.22241077 -92.20703125 61.04248047 C-90.71193282 46.29248818 -82.00926637 34.36675485 -71 25 C-51.44917179 9.62604645 -24.96564102 -0.4379937 0 0 Z " fill="#98B669" transform="translate(152,43)"/>
<path d="M0 0 C2.96536979 1.52275746 3.87307755 3.23289602 5.3125 6.1875 C9.04889216 4.94203595 9.50006513 3.55345047 11.3125 0.1875 C15.6314403 0.66738226 17.52903313 3.006395 20.3125 6.1875 C26.74132169 14.56444947 29.51082096 21.68750701 29.3125 32.1875 C26.75123936 33.481674 24.18856642 34.77290784 21.625 36.0625 C20.90376953 36.42730469 20.18253906 36.79210938 19.43945312 37.16796875 C15.78124636 39.0054242 12.1513305 40.74888502 8.3125 42.1875 C7.9825 41.8575 7.6525 41.5275 7.3125 41.1875 C5.64632885 41.14686168 3.97861905 41.144779 2.3125 41.1875 C2.498125 42.7653125 2.498125 42.7653125 2.6875 44.375 C2.25654099 48.75641663 2.25654099 48.75641663 -0.5 51.125 C-3.6875 53.1875 -3.6875 53.1875 -6.6875 53.1875 C-7.0175 51.5375 -7.3475 49.8875 -7.6875 48.1875 C-9.0075 48.1875 -10.3275 48.1875 -11.6875 48.1875 C-11.6875 49.8375 -11.6875 51.4875 -11.6875 53.1875 C-10.3675 53.8475 -9.0475 54.5075 -7.6875 55.1875 C-8.25295837 59.14570859 -9.49652348 61.8534053 -11.6875 65.1875 C-14.125 64.8125 -14.125 64.8125 -16.6875 64.1875 C-17.0175 63.5275 -17.3475 62.8675 -17.6875 62.1875 C-19.3375 62.1875 -20.9875 62.1875 -22.6875 62.1875 C-22.1925 64.6625 -22.1925 64.6625 -21.6875 67.1875 C-19.3775 67.1875 -17.0675 67.1875 -14.6875 67.1875 C-15.13626616 68.83596769 -15.59680488 70.48123455 -16.0625 72.125 C-16.31773438 73.04152344 -16.57296875 73.95804687 -16.8359375 74.90234375 C-17.6875 77.1875 -17.6875 77.1875 -19.6875 78.1875 C-20.73675187 98.1593904 -20.73675187 98.1593904 -15.6875 117.1875 C-15.00494141 118.66669922 -15.00494141 118.66669922 -14.30859375 120.17578125 C-13.15644358 122.54901366 -11.95999544 124.87719065 -10.6875 127.1875 C-14.65833602 131.89709621 -21.24188018 132.8762475 -27.15234375 133.41015625 C-29.3125 133.4375 -29.3125 133.4375 -32.6875 133.1875 C-33.6875 132.1875 -33.6875 132.1875 -33.78515625 130.12109375 C-33.75260417 127.80989583 -33.72005208 125.49869792 -33.6875 123.1875 C-36.9875 123.1875 -40.2875 123.1875 -43.6875 123.1875 C-46.55991396 117.44267209 -45.88650102 107.03344818 -43.99609375 100.96972656 C-42.26582504 96.82445276 -40.08273674 92.98810523 -37.6875 89.1875 C-37.0275 89.1875 -36.3675 89.1875 -35.6875 89.1875 C-35.378125 88.548125 -35.06875 87.90875 -34.75 87.25 C-33.6875 85.1875 -33.6875 85.1875 -32.6875 84.1875 C-33.29335938 84.04054688 -33.89921875 83.89359375 -34.5234375 83.7421875 C-46.73342163 80.47366867 -54.54186426 74.84499395 -61.00390625 63.97265625 C-62.97160901 60.29092669 -63.6875 58.5038919 -63.6875 54.1875 C-61.0475 53.1975 -58.4075 52.2075 -55.6875 51.1875 C-55.97625 50.465625 -56.265 49.74375 -56.5625 49 C-57.60416667 46.39583333 -58.64583333 43.79166667 -59.6875 41.1875 C-51.47377943 35.07986162 -42.9097701 32.85312442 -32.6875 34.1875 C-27.56217903 35.47821041 -22.61874112 37.30123291 -17.6875 39.1875 C-17.72230469 38.38828125 -17.75710937 37.5890625 -17.79296875 36.765625 C-18.08431361 24.9453477 -16.85309712 15.12605413 -8.6875 6.1875 C-7.92179687 5.26904297 -7.92179687 5.26904297 -7.140625 4.33203125 C-4.86559533 1.76969113 -3.50245619 0.24435741 0 0 Z " fill="#F7B3B7" transform="translate(73.6875,15.8125)"/>
<path d="M0 0 C0.99 0.33 1.98 0.66 3 1 C0.44535995 5.61081374 -2.74423194 9.55565091 -6.0625 13.625 C-7.13780854 14.94963691 -8.21206882 16.27512563 -9.28515625 17.6015625 C-9.75832275 18.18244629 -10.23148926 18.76333008 -10.71899414 19.36181641 C-11.88555503 20.8536448 -12.94951787 22.42427681 -14 24 C-16.83022801 23.63602389 -17.90783172 23.09235225 -19.95703125 21.0390625 C-20.56933594 20.24242187 -21.18164062 19.44578125 -21.8125 18.625 C-22.43769531 17.83351563 -23.06289062 17.04203125 -23.70703125 16.2265625 C-24.13371094 15.49179688 -24.56039062 14.75703125 -25 14 C-24.67 13.01 -24.34 12.02 -24 11 C-19.62573634 11.4860293 -17.96133065 12.8361852 -15 16 C-14.5875 15.43152344 -14.175 14.86304687 -13.75 14.27734375 C-9.8147326 9.01568042 -5.65448339 3.51561359 0 0 Z " fill="#F4FAEB" transform="translate(119,109)"/>
<path d="M0 0 C0.66 0.33 1.32 0.66 2 1 C1.34515625 1.66902344 0.6903125 2.33804688 0.015625 3.02734375 C-6.35856353 9.68600996 -11.82896189 16.68453486 -17.02636719 24.29858398 C-17.50235352 24.99540283 -17.97833984 25.69222168 -18.46875 26.41015625 C-18.88576172 27.03027588 -19.30277344 27.65039551 -19.73242188 28.28930664 C-21.02532374 30.03417631 -22.42802643 31.50553822 -24 33 C-24 31.68 -24 30.36 -24 29 C-24.99 29 -25.98 29 -27 29 C-22.22668969 18.14257397 -9.26824865 7.16789014 0 0 Z " fill="#F1FAE7" transform="translate(118,70)"/>
<path d="M0 0 C0.66 0.33 1.32 0.66 2 1 C3.67654729 0.72057545 5.34608154 0.39171753 7 0 C2.69934641 18.30065359 2.69934641 18.30065359 0 21 C-1.66617115 21.04063832 -3.33388095 21.042721 -5 21 C-4.5003731 13.50559651 -2.56235522 7.04349737 0 0 Z " fill="#97B570" transform="translate(73,147)"/>
<path d="M0 0 C0.33 0.99 0.66 1.98 1 3 C0.67 3.66 0.34 4.32 0 5 C-0.99 4.67 -1.98 4.34 -3 4 C-2.01 2.68 -1.02 1.36 0 0 Z M-14 1 C-12.32457024 1.28604898 -10.65614657 1.61781233 -9 2 C-9 3.65 -9 5.3 -9 7 C-7.02 6.34 -5.04 5.68 -3 5 C-4.45255699 8.82946843 -6.42895561 10.12050295 -10 12 C-10.33 11.01 -10.66 10.02 -11 9 C-13.00016466 7.79117904 -13.00016466 7.79117904 -15 7 C-15.042721 5.33388095 -15.04063832 3.66617115 -15 2 C-14.67 1.67 -14.34 1.34 -14 1 Z " fill="#FCE9E6" transform="translate(76,62)"/>
<path d="M0 0 C0.33 0.66 0.66 1.32 1 2 C0.34 2 -0.32 2 -1 2 C-1 2.66 -1 3.32 -1 4 C-0.34 4 0.32 4 1 4 C2.23921302 6.97411124 3.30058404 9.85262818 4 13 C-1.75 17 -1.75 17 -4 17 C-4.33 17.99 -4.66 18.98 -5 20 C-4.34 20 -3.68 20 -3 20 C-2.67 21.65 -2.34 23.3 -2 25 C-2.66 25 -3.32 25 -4 25 C-6.03435531 21.27034861 -7 19.33094958 -7 15 C-4.36 14.01 -1.72 13.02 1 12 C0.71125 11.278125 0.4225 10.55625 0.125 9.8125 C-0.91666667 7.20833333 -1.95833333 4.60416667 -3 2 C-2.01 1.34 -1.02 0.68 0 0 Z " fill="#F0BEC1" transform="translate(17,55)"/>
<path d="M0 0 C0.763125 0.66 1.52625 1.32 2.3125 2 C4.84277939 4.29850538 4.84277939 4.29850538 8 4 C8.33 3.34 8.66 2.68 9 2 C9 3.32 9 4.64 9 6 C4.88888889 10 4.88888889 10 1 10 C0.9175 9.21625 0.835 8.4325 0.75 7.625 C0.27193661 4.85250896 0.27193661 4.85250896 -2.0625 3.6875 C-2.701875 3.460625 -3.34125 3.23375 -4 3 C-2.68 2.01 -1.36 1.02 0 0 Z " fill="#EEAFB3" transform="translate(66,59)"/>
<path d="M0 0 C1.125 3.75 1.125 3.75 0 6 C0.66 6.33 1.32 6.66 2 7 C1.27683594 7.77537109 1.27683594 7.77537109 0.5390625 8.56640625 C-1.48412695 11.76551038 -1.47241842 14.17515952 -1.625 17.9375 C-1.81066643 22.07078845 -2.06571965 25.96421523 -3 30 C-3.33 30 -3.66 30 -4 30 C-4.46909786 19.11953582 -4.00272711 10.27485753 0 0 Z " fill="#9EB378" transform="translate(64,89)"/>
<path d="M0 0 C2.25 -0.3125 2.25 -0.3125 5 0 C7.3125 2.5 7.3125 2.5 9 5 C8.67 5.66 8.34 6.32 8 7 C4.625 7.125 4.625 7.125 1 7 C0.34 6.34 -0.32 5.68 -1 5 C-0.625 2.375 -0.625 2.375 0 0 Z " fill="#FDF5F3" transform="translate(51,77)"/>
<path d="M0 0 C0.33 0.66 0.66 1.32 1 2 C-0.48113281 2.07347656 -0.48113281 2.07347656 -1.9921875 2.1484375 C-3.27351563 2.22320312 -4.55484375 2.29796875 -5.875 2.375 C-7.78925781 2.47941406 -7.78925781 2.47941406 -9.7421875 2.5859375 C-13.08061699 2.67241106 -13.08061699 2.67241106 -15 5 C-17.68839385 5.26991906 -20.29141936 5.08737357 -23 5 C-17.00732734 -0.99267266 -7.87683807 -0.35985555 0 0 Z " fill="#F1C2C5" transform="translate(41,50)"/>
<path d="M0 0 C0.68359375 1.703125 0.68359375 1.703125 1 4 C-0.21484375 6.359375 -0.21484375 6.359375 -1.9375 8.75 C-2.50339844 9.54921875 -3.06929688 10.3484375 -3.65234375 11.171875 C-4.09707031 11.77515625 -4.54179688 12.3784375 -5 13 C-5.103125 12.360625 -5.20625 11.72125 -5.3125 11.0625 C-5.539375 10.381875 -5.76625 9.70125 -6 9 C-6.99 8.67 -7.98 8.34 -9 8 C-8.01 7.67 -7.02 7.34 -6 7 C-4.63823419 5.01924973 -3.30406884 3.01920337 -2 1 C-1.34 0.67 -0.68 0.34 0 0 Z " fill="#F6FAEC" transform="translate(100,90)"/>
<path d="M0 0 C-0.33 1.65 -0.66 3.3 -1 5 C-5.95 4.67 -10.9 4.34 -16 4 C-16 3.67 -16 3.34 -16 3 C-13.70887834 2.49750857 -11.41708499 1.99807883 -9.125 1.5 C-7.84882812 1.2215625 -6.57265625 0.943125 -5.2578125 0.65625 C-2 0 -2 0 0 0 Z " fill="#E4C8B4" transform="translate(114,144)"/>
<path d="M0 0 C0.99 0.33 1.98 0.66 3 1 C1.26440562 4.057952 -0.38472619 6.63379989 -3 9 C-3 8.01 -3 7.02 -3 6 C-4.32 6.99 -5.64 7.98 -7 9 C-7.66 8.67 -8.32 8.34 -9 8 C-7.87811441 6.85111717 -6.75238316 5.70598863 -5.625 4.5625 C-4.99851562 3.92441406 -4.37203125 3.28632812 -3.7265625 2.62890625 C-2 1 -2 1 0 0 Z " fill="#EEF8DE" transform="translate(119,109)"/>
<path d="M0 0 C0.66 0 1.32 0 2 0 C2.33 1.98 2.66 3.96 3 6 C3.99 5.67 4.98 5.34 6 5 C5.34 6.32 4.68 7.64 4 9 C2.35 9 0.7 9 -1 9 C-0.67 6.03 -0.34 3.06 0 0 Z " fill="#A3BE84" transform="translate(69,159)"/>
<path d="M0 0 C1.625 1.375 1.625 1.375 3 3 C5.10332891 3.71447643 5.10332891 3.71447643 7 4 C6.67 4.66 6.34 5.32 6 6 C3.5625 5.625 3.5625 5.625 1 5 C0.67 4.34 0.34 3.68 0 3 C-1.65 3 -3.3 3 -5 3 C-4.67 4.98 -4.34 6.96 -4 9 C-5.32 8.34 -6.64 7.68 -8 7 C-7.34 5.02 -6.68 3.04 -6 1 C-3.1875 0.3125 -3.1875 0.3125 0 0 Z " fill="#F2C5CA" transform="translate(56,75)"/>
<path d="M0 0 C0.66 0.33 1.32 0.66 2 1 C0.40559179 2.84269317 -1.19941461 4.67378093 -2.8125 6.5 C-3.26431641 7.02464844 -3.71613281 7.54929687 -4.18164062 8.08984375 C-5.39249865 9.45095423 -6.69240937 10.73153413 -8 12 C-8.99 12 -9.98 12 -11 12 C-9.49650623 8.33213607 -7.36271208 6.31089607 -4.375 3.75 C-3.14910156 2.69039063 -3.14910156 2.69039063 -1.8984375 1.609375 C-1.27195312 1.07828125 -0.64546875 0.5471875 0 0 Z " fill="#EAF8D4" transform="translate(118,70)"/>
<path d="M0 0 C1.67542976 0.28604898 3.34385343 0.61781233 5 1 C4.67 2.65 4.34 4.3 4 6 C2.35 6 0.7 6 -1 6 C-1.042721 4.33388095 -1.04063832 2.66617115 -1 1 C-0.67 0.67 -0.34 0.34 0 0 Z " fill="#FEF3EF" transform="translate(62,63)"/>
<path d="M0 0 C0.33 0.99 0.66 1.98 1 3 C-0.87109375 5.69921875 -0.87109375 5.69921875 -3.4375 8.6875 C-4.28183594 9.68136719 -5.12617187 10.67523438 -5.99609375 11.69921875 C-6.98802734 12.83810547 -6.98802734 12.83810547 -8 14 C-8 9.96618977 -6.40426438 8.50566363 -4 5.3125 C-3.2575 4.31863281 -2.515 3.32476562 -1.75 2.30078125 C-1.1725 1.54152344 -0.595 0.78226562 0 0 Z " fill="#9FB578" transform="translate(107,85)"/>
<path d="M0 0 C0.33 0.66 0.66 1.32 1 2 C-4.0022779 9.48291572 -4.0022779 9.48291572 -8 12 C-8.66 11.67 -9.32 11.34 -10 11 C-6.7 7.37 -3.4 3.74 0 0 Z " fill="#A4BB7E" transform="translate(118,72)"/>
<path d="M0 0 C0 0.66 0 1.32 0 2 C-0.99 2 -1.98 2 -3 2 C-3.4640625 2.928125 -3.4640625 2.928125 -3.9375 3.875 C-4.625 5.25 -5.3125 6.625 -6 8 C-7.65 7.67 -9.3 7.34 -11 7 C-4.48275862 0 -4.48275862 0 0 0 Z " fill="#A0BB7D" transform="translate(98,58)"/>
<path d="M0 0 C4.95 0.33 9.9 0.66 15 1 C15 1.33 15 1.66 15 2 C14.26394531 2.06058594 13.52789062 2.12117187 12.76953125 2.18359375 C11.79371094 2.26738281 10.81789063 2.35117188 9.8125 2.4375 C8.84957031 2.51871094 7.88664062 2.59992188 6.89453125 2.68359375 C4.21350398 2.97666151 1.6337014 3.42703754 -1 4 C-0.67 2.68 -0.34 1.36 0 0 Z " fill="#EBF5D9" transform="translate(80,147)"/>
<path d="M0 0 C0.33 0.66 0.66 1.32 1 2 C0.67 2.99 0.34 3.98 0 5 C-4.06277395 6.80567731 -5.58852494 7.10286876 -10 6 C-6.7 4.02 -3.4 2.04 0 0 Z " fill="#EDE9D4" transform="translate(125,136)"/>
<path d="M0 0 C0.93045933 2.55144824 1.08564091 3.74006478 0.22265625 6.359375 C-0.16019531 7.14828125 -0.54304688 7.9371875 -0.9375 8.75 C-1.50791016 9.94882813 -1.50791016 9.94882813 -2.08984375 11.171875 C-2.39019531 11.77515625 -2.69054687 12.3784375 -3 13 C-3.93045933 10.44855176 -4.08564091 9.25993522 -3.22265625 6.640625 C-2.83980469 5.85171875 -2.45695312 5.0628125 -2.0625 4.25 C-1.68222656 3.45078125 -1.30195313 2.6515625 -0.91015625 1.828125 C-0.60980469 1.22484375 -0.30945312 0.6215625 0 0 Z " fill="#F1BEC2" transform="translate(33,110)"/>
<path d="M0 0 C-0.625 2.4375 -0.625 2.4375 -2 5 C-5.125 5.8125 -5.125 5.8125 -8 6 C-3.375 0 -3.375 0 0 0 Z " fill="#F4FCE9" transform="translate(109,81)"/>
<path d="M0 0 C0.99 0.33 1.98 0.66 3 1 C0.69 3.31 -1.62 5.62 -4 8 C-4.33 7.01 -4.66 6.02 -5 5 C-4.34 5 -3.68 5 -3 5 C-2.5359375 4.0409375 -2.5359375 4.0409375 -2.0625 3.0625 C-1 1 -1 1 0 0 Z " fill="#EDF4DD" transform="translate(77,69)"/>
<path d="M0 0 C0.33 0 0.66 0 1 0 C1.25 3.25 1.25 3.25 1 7 C-0.32 8.32 -1.64 9.64 -3 11 C-2.01 7.37 -1.02 3.74 0 0 Z " fill="#A4BD85" transform="translate(73,147)"/>
<path d="M0 0 C-6.625 4 -6.625 4 -10 4 C-9.67 3.01 -9.34 2.02 -9 1 C-3.79245283 -1.26415094 -3.79245283 -1.26415094 0 0 Z " fill="#AFBA84" transform="translate(119,141)"/>
<path d="M0 0 C1 4 1 4 0 6 C0.66 6.33 1.32 6.66 2 7 C-0.475 8.485 -0.475 8.485 -3 10 C-2.01 6.7 -1.02 3.4 0 0 Z " fill="#A9C089" transform="translate(64,89)"/>
<path d="M0 0 C0 3.99904969 -1.72586967 5.80200422 -4 9 C-4.99 8.67 -5.98 8.34 -7 8 C-4.69 5.36 -2.38 2.72 0 0 Z " fill="#E8F3DA" transform="translate(98,89)"/>
<path d="M0 0 C2.46800047 1.15173355 4.04783565 2.04783565 6 4 C2.72724974 4 0.153368 3.70074844 -3 3 C-2.01 2.01 -1.02 1.02 0 0 Z " fill="#F1BDC3" transform="translate(79,53)"/>
<path d="M0 0 C0.33 0 0.66 0 1 0 C1.3125 2.25 1.3125 2.25 1 5 C-1.5 7.3125 -1.5 7.3125 -4 9 C-2.94124926 5.59687262 -1.99097846 2.98646769 0 0 Z " fill="#EAF2DA" transform="translate(77,119)"/>
</svg>
